<?xml version="1.0" encoding="UTF-8"?>
<!DOCTYPE svg PUBLIC "-//W3C//DTD SVG 1.1//EN" "http://www.w3.org/Graphics/SVG/1.1/DTD/svg11.dtd">
<svg version="1.1" xmlns="http://www.w3.org/2000/svg" xmlns:xlink="http://www.w3.org/1999/xlink" x="0" y="0" width="650" height="1200" viewBox="0, 0, 650, 1200">
  <g id="Layer_1">
    <text transform="matrix(1, 0, 0, 1, 337, 21.362)">
      <tspan x="-63.29" y="2.638" font-family="Tahoma-Bold" font-size="12" fill="#1C1C1C" fill-opacity="0.913">FROM demo/collectd</tspan>
    </text>
    <text transform="matrix(1, 0, 0, 1, 338.614, 122.053)">
      <tspan x="-71.493" y="-39.211" font-family="Tahoma" font-size="12" fill="#000000" fill-opacity="0.912">time: </tspan>
      <tspan x="-40.35" y="-39.211" font-family="Monaco" font-size="12" fill="#000000" fill-opacity="0.912">1512037727.57</tspan>
      <tspan x="-71.493" y="-23.211" font-family="Tahoma" font-size="12" fill="#1C1C1C" fill-opacity="0.913">host: www42</tspan>
      <tspan x="-71.493" y="-9.211" font-family="Tahoma" font-size="12" fill="#1C1C1C" fill-opacity="0.913">plugin: memory</tspan>
      <tspan x="-71.493" y="4.789" font-family="Tahoma" font-size="12" fill="#1C1C1C" fill-opacity="0.913">instance: Null</tspan>
      <tspan x="-71.493" y="18.789" font-family="Tahoma" font-size="12" fill="#1C1C1C" fill-opacity="0.913">type_instance: used</tspan>
      <tspan x="-71.493" y="32.789" font-family="Tahoma" font-size="12" fill="#1C1C1C" fill-opacity="0.913">value: 12345</tspan>
      <tspan x="-71.493" y="46.789" font-family="Tahoma" font-size="12" fill="#1C1C1C" fill-opacity="0.913">etc...</tspan>
    </text>
    <path d="M264.393,71.343 L407.472,71.343 L407.472,180.5 L264.393,180.5 L264.393,71.343 z" fill-opacity="0" stroke="#000000" stroke-width="1"/>
    <g>
      <path d="M337.5,192.5 L337.5,207.5" fill-opacity="0" stroke="#000000" stroke-width="1"/>
      <path d="M334.5,207.5 L337.5,215.5 L340.5,207.5 z" fill="#000000" fill-opacity="1" stroke="#000000" stroke-width="1" stroke-opacity="1"/>
    </g>
    <text transform="matrix(1, 0, 0, 1, 335.432, 239.666)">
      <tspan x="-140.464" y="0.334" font-family="Tahoma-Bold" font-size="12" fill="#000000" fill-opacity="0.912">WHERE</tspan>
      <tspan x="-95.481" y="0.334" font-family="Tahoma-Bold" font-size="12" fill="#000000" fill-opacity="0.915">  COALESCE (plugin = "memory", false)</tspan>
    </text>
    <g>
      <path d="M337.5,36.5 L337.5,51.5" fill-opacity="0" stroke="#000000" stroke-width="1"/>
      <path d="M334.5,51.5 L337.5,59.5 L340.5,51.5 z" fill="#000000" fill-opacity="1" stroke="#000000" stroke-width="1" stroke-opacity="1"/>
    </g>
    <text transform="matrix(1, 0, 0, 1, 338.614, 337.385)">
      <tspan x="-71.493" y="-39.211" font-family="Tahoma" font-size="12" fill="#000000" fill-opacity="0.912">time: </tspan>
      <tspan x="-40.35" y="-39.211" font-family="Monaco" font-size="12" fill="#000000" fill-opacity="0.912">1512037727.57</tspan>
      <tspan x="-71.493" y="-23.211" font-family="Tahoma" font-size="12" fill="#1C1C1C" fill-opacity="0.913">host: www42</tspan>
      <tspan x="-71.493" y="-9.211" font-family="Tahoma" font-size="12" fill="#1C1C1C" fill-opacity="0.913">plugin: memory</tspan>
      <tspan x="-71.493" y="4.789" font-family="Tahoma" font-size="12" fill="#1C1C1C" fill-opacity="0.913">instance: Null</tspan>
      <tspan x="-71.493" y="18.789" font-family="Tahoma" font-size="12" fill="#1C1C1C" fill-opacity="0.913">type_instance: used</tspan>
      <tspan x="-71.493" y="32.789" font-family="Tahoma" font-size="12" fill="#1C1C1C" fill-opacity="0.913">value: 12345</tspan>
      <tspan x="-71.493" y="46.789" font-family="Tahoma" font-size="12" fill="#1C1C1C" fill-opacity="0.913">etc...</tspan>
    </text>
    <path d="M264.393,286.674 L407.472,286.674 L407.472,395.831 L264.393,395.831 L264.393,286.674 z" fill-opacity="0" stroke="#000000" stroke-width="1"/>
    <g>
      <path d="M337.13,251.831 L337.13,266.831" fill-opacity="0" stroke="#000000" stroke-width="1"/>
      <path d="M334.13,266.831 L337.13,274.831 L340.13,266.831 z" fill="#000000" fill-opacity="1" stroke="#000000" stroke-width="1" stroke-opacity="1"/>
    </g>
    <g>
      <path d="M457.5,251.831 L475.136,269.467" fill-opacity="0" stroke="#000000" stroke-width="1"/>
      <path d="M473.015,271.589 L480.793,275.124 L477.257,267.346 z" fill="#000000" fill-opacity="1" stroke="#000000" stroke-width="1" stroke-opacity="1"/>
    </g>
    <text transform="matrix(1, 0, 0, 1, 529, 312.674)">
      <tspan x="-65.784" y="-9.5" font-family="ShreeDev0714-BoldItalic" font-size="18" fill="#1C1C1C" fill-opacity="0.913">unselected tuple </tspan>
      <tspan x="-50.009" y="17.5" font-family="ShreeDev0714-BoldItalic" font-size="18" fill="#1C1C1C" fill-opacity="0.913">"unselected"</tspan>
    </text>
    <text transform="matrix(1, 0, 0, 1, 434.809, 326.174)">
      <tspan x="-12.634" y="4" font-family="ShreeDev0714-BoldItalic" font-size="18" fill="#000000" fill-opacity="0.915">OR</tspan>
    </text>
    <text transform="matrix(1, 0, 0, 1, 337, 455.666)">
      <tspan x="-81.905" y="0.334" font-family="Tahoma-Bold" font-size="12" fill="#000000" fill-opacity="0.915">GROUP BY host, time // 30</tspan>
    </text>
    <g>
      <path d="M337.5,408.5 L337.5,423.5" fill-opacity="0" stroke="#000000" stroke-width="1"/>
      <path d="M334.5,423.5 L337.5,431.5 L340.5,423.5 z" fill="#000000" fill-opacity="1" stroke="#000000" stroke-width="1" stroke-opacity="1"/>
    </g>
    <g>
      <path d="M337.5,467.831 L337.5,483.5" fill-opacity="0" stroke="#000000" stroke-width="1"/>
      <path d="M334.5,483.5 L337.5,491.5 L340.5,483.5 z" fill="#000000" fill-opacity="1" stroke="#000000" stroke-width="1" stroke-opacity="1"/>
    </g>
    <text transform="matrix(1, 0, 0, 1, 324.446, 514.333)">
      <tspan x="-74.829" y="3.667" font-family="Tahoma" font-size="12" fill="#000000">Key = www42, </tspan>
      <tspan x="7.618" y="3.667" font-family="Monaco" font-size="14" fill="#000000">50401257</tspan>
    </text>
    <g>
      <path d="M193.5,612.5 C173.618,612.5 157.5,609.814 157.5,606.5 C157.5,603.186 173.618,600.5 193.5,600.5 C213.382,600.5 229.5,603.186 229.5,606.5 C229.5,609.814 213.382,612.5 193.5,612.5 z" fill="#FFFFFF"/>
      <path d="M193.5,612.5 C173.618,612.5 157.5,609.814 157.5,606.5 C157.5,603.186 173.618,600.5 193.5,600.5 C213.382,600.5 229.5,603.186 229.5,606.5 C229.5,609.814 213.382,612.5 193.5,612.5 z" fill-opacity="0" stroke="#000000" stroke-width="1"/>
    </g>
    <path d="M157,510.361 L229,510.361 L229,606.361 L157,606.361 L157,510.361 z" fill="#FFFFFF"/>
    <path d="M157.5,510.5 L157.5,606.861" fill-opacity="0" stroke="#000000" stroke-width="1"/>
    <path d="M229.5,510.861 L229.5,606.861" fill-opacity="0" stroke="#000000" stroke-width="1"/>
    <g>
      <path d="M193.5,516.5 C173.618,516.5 157.5,513.814 157.5,510.5 C157.5,507.186 173.618,504.5 193.5,504.5 C213.382,504.5 229.5,507.186 229.5,510.5 C229.5,513.814 213.382,516.5 193.5,516.5 z" fill="#FFFFFF"/>
      <path d="M193.5,516.5 C173.618,516.5 157.5,513.814 157.5,510.5 C157.5,507.186 173.618,504.5 193.5,504.5 C213.382,504.5 229.5,507.186 229.5,510.5 C229.5,513.814 213.382,516.5 193.5,516.5 z" fill-opacity="0" stroke="#000000" stroke-width="1"/>
    </g>
    <text transform="matrix(1, 0, 0, 1, 193, 554.581)">
      <tspan x="-22.433" y="-2.5" font-family="Tahoma" font-size="12" fill="#000000">DB of all</tspan>
      <tspan x="-18.047" y="11.5" font-family="Tahoma" font-size="12" fill="#000000">groups</tspan>
    </text>
    <g>
      <path d="M282.34,600.304 C208.071,596.959 218.74,551.606 291.338,528.5" fill-opacity="0" stroke="#000000" stroke-width="1"/>
      <path d="M282.274,603.303 L290.338,600.478 L282.405,597.305 z" fill="#000000" fill-opacity="1" stroke="#000000" stroke-width="1" stroke-opacity="1"/>
    </g>
    <text transform="matrix(1, 0, 0, 1, 349, 834.5)">
      <tspan x="-217.009" y="-30.5" font-family="Tahoma-Bold" font-size="12" fill="#000000" fill-opacity="0.915">SELECT</tspan>
      <tspan x="-217.009" y="-16.5" font-family="Tahoma-Bold" font-size="12" fill="#000000" fill-opacity="0.915">	MIN time AS time,</tspan>
      <tspan x="-217.009" y="-2.5" font-family="Tahoma-Bold" font-size="12" fill="#000000" fill-opacity="0.915">	host,</tspan>
      <tspan x="-217.009" y="11.5" font-family="Tahoma-Bold" font-size="12" fill="#000000" fill-opacity="0.915">	AVG (IF type_instance = "free" THEN value else 0) AS free,</tspan>
      <tspan x="-217.009" y="25.5" font-family="Tahoma-Bold" font-size="12" fill="#000000" fill-opacity="0.915">	...etc...</tspan>
      <tspan x="-217.009" y="39.5" font-family="Tahoma-Bold" font-size="12" fill="#000000" fill-opacity="0.915">	</tspan>
      <tspan x="-189.009" y="39.5" font-family="Tahoma-Bold" font-size="12" fill="#000000" fill-opacity="0.915">AVG (IF type_instance LIKE "slab%" THEN value else 0) AS slab</tspan>
    </text>
    <g>
      <path d="M349.5,674.31 L349.5,773.326" fill-opacity="0" stroke="#000000" stroke-width="1"/>
      <path d="M346.5,773.326 L349.5,781.326 L352.5,773.326 z" fill="#000000" fill-opacity="1" stroke="#000000" stroke-width="1" stroke-opacity="1"/>
    </g>
    <text transform="matrix(1, 0, 0, 1, 346.982, 950.5)">
      <tspan x="-62.642" y="-9.5" font-family="ShreeDev0714-BoldItalic" font-size="18" fill="#1C1C1C" fill-opacity="0.913">compute a new </tspan>
      <tspan x="-70.111" y="17.5" font-family="ShreeDev0714-BoldItalic" font-size="18" fill="#1C1C1C" fill-opacity="0.913">output tuple "out"</tspan>
    </text>
    <g>
      <path d="M349.5,888.5 L349.5,904.169" fill-opacity="0" stroke="#000000" stroke-width="1"/>
      <path d="M346.5,904.169 L349.5,912.169 L352.5,904.169 z" fill="#000000" fill-opacity="1" stroke="#000000" stroke-width="1" stroke-opacity="1"/>
    </g>
    <g>
      <path d="M349.5,983.831 L349.5,999.5" fill-opacity="0" stroke="#000000" stroke-width="1"/>
      <path d="M346.5,999.5 L349.5,1007.5 L352.5,999.5 z" fill="#000000" fill-opacity="1" stroke="#000000" stroke-width="1" stroke-opacity="1"/>
    </g>
    <g>
      <path d="M316.02,1037.713 C309.9,1037.713 304.939,1032.341 304.939,1025.713 C304.939,1019.086 309.9,1013.713 316.02,1013.713 C322.14,1013.713 327.101,1019.086 327.101,1025.713 C327.101,1032.341 322.14,1037.713 316.02,1037.713 z" fill="#B8C5FF" fill-opacity="0.5"/>
      <path d="M316.02,1037.713 C309.9,1037.713 304.939,1032.341 304.939,1025.713 C304.939,1019.086 309.9,1013.713 316.02,1013.713 C322.14,1013.713 327.101,1019.086 327.101,1025.713 C327.101,1032.341 322.14,1037.713 316.02,1037.713 z" fill-opacity="0" stroke="#CEBCFF" stroke-width="2" stroke-opacity="0.5" stroke-dasharray="6,4"/>
    </g>
    <g>
      <path d="M219.204,68.524 L250.531,68.524 C251.559,68.524 252.393,71.997 252.393,76.283 L252.393,89.584 C252.393,93.869 251.559,97.343 250.531,97.343 L219.204,97.343 C218.176,97.343 217.343,93.869 217.343,89.584 L217.343,76.283 C217.343,71.997 218.176,68.524 219.204,68.524 z" fill="#B8C5FF" fill-opacity="0.5"/>
      <path d="M219.204,68.524 L250.531,68.524 C251.559,68.524 252.393,71.997 252.393,76.283 L252.393,89.584 C252.393,93.869 251.559,97.343 250.531,97.343 L219.204,97.343 C218.176,97.343 217.343,93.869 217.343,89.584 L217.343,76.283 C217.343,71.997 218.176,68.524 219.204,68.524 z" fill-opacity="0" stroke="#CEBCFF" stroke-width="2" stroke-opacity="0.5" stroke-dasharray="6,4"/>
    </g>
    <g>
      <path d="M372.368,1013.713 L417.828,1013.713 C421.358,1013.713 424.219,1017.387 424.219,1021.918 L424.219,1029.509 C424.219,1034.04 421.358,1037.714 417.828,1037.714 L372.368,1037.714 C368.838,1037.714 365.977,1034.04 365.977,1029.509 L365.977,1021.918 C365.977,1017.387 368.838,1013.713 372.368,1013.713 z" fill="#FFBDF5" fill-opacity="0.5"/>
      <path d="M372.368,1013.713 L417.828,1013.713 C421.358,1013.713 424.219,1017.387 424.219,1021.918 L424.219,1029.509 C424.219,1034.04 421.358,1037.714 417.828,1037.714 L372.368,1037.714 C368.838,1037.714 365.977,1034.04 365.977,1029.509 L365.977,1021.918 C365.977,1017.387 368.838,1013.713 372.368,1013.713 z" fill-opacity="0" stroke="#CEBCFF" stroke-width="2" stroke-opacity="0.5"/>
    </g>
    <g>
      <path d="M360.036,1056.5 L376.717,1073.988" fill-opacity="0" stroke="#000000" stroke-width="1"/>
      <path d="M374.546,1076.058 L382.238,1079.776 L378.887,1071.917 z" fill="#000000" fill-opacity="1" stroke="#000000" stroke-width="1" stroke-opacity="1"/>
    </g>
    <g>
      <path d="M334.992,1056.5 L317.246,1074.153" fill-opacity="0" stroke="#000000" stroke-width="1"/>
      <path d="M315.13,1072.026 L311.575,1079.795 L319.362,1076.28 z" fill="#000000" fill-opacity="1" stroke="#000000" stroke-width="1" stroke-opacity="1"/>
    </g>
    <text transform="matrix(1, 0, 0, 1, 285.485, 1068)">
      <tspan x="-10.503" y="5.5" font-family="Times-Italic" font-size="18" fill="#000000">No</tspan>
    </text>
    <text transform="matrix(1, 0, 0, 1, 409.324, 1068)">
      <tspan x="-11.676" y="5.5" font-family="Times-Italic" font-size="18" fill="#000000">Yes</tspan>
    </text>
    <text transform="matrix(1, 0, 0, 1, 245.061, 1126.632)">
      <tspan x="-70.178" y="-17.632" font-family="ShreeDev0714-BoldItalic" font-size="18" fill="#1C1C1C" fill-opacity="0.913">Update the group</tspan>
      <tspan x="-72.574" y="3.368" font-family="ShreeDev0714-BoldItalic" font-size="12" fill="#1C1C1C" fill-opacity="0.913">This "out" become the new </tspan>
      <tspan x="-41.493" y="21.368" font-family="ShreeDev0714-BoldItalic" font-size="12" fill="#1C1C1C" fill-opacity="0.913">group.previous.</tspan>
    </text>
    <g>
      <path d="M166.866,1128.216 C66.529,1128.216 34.484,647.874 145.35,570.562" fill-opacity="0" stroke="#000000" stroke-width="1" stroke-dasharray="6,5"/>
      <path d="M146.887,573.138 L152.22,566.463 L143.813,567.986 z" fill="#000000" fill-opacity="1" stroke="#000000" stroke-width="1" stroke-opacity="1"/>
    </g>
    <text transform="matrix(1, 0, 0, 1, 459.168, 705.5)">
      <tspan x="-71.493" y="-45.5" font-family="Tahoma" font-size="12" fill="#000000" fill-opacity="0.912">time: </tspan>
      <tspan x="-40.35" y="-45.5" font-family="Monaco" font-size="12" fill="#000000" fill-opacity="0.912">1512037727.57</tspan>
      <tspan x="-71.493" y="-29.5" font-family="Tahoma" font-size="12" fill="#1C1C1C" fill-opacity="0.913">host: www42</tspan>
      <tspan x="-71.493" y="-15.5" font-family="Tahoma" font-size="12" fill="#1C1C1C" fill-opacity="0.913">free: 8762341</tspan>
      <tspan x="-71.493" y="-1.5" font-family="Tahoma" font-size="12" fill="#1C1C1C" fill-opacity="0.913">used: 18236671</tspan>
      <tspan x="-71.493" y="12.5" font-family="Tahoma" font-size="12" fill="#1C1C1C" fill-opacity="0.913">cached: 24534562</tspan>
      <tspan x="-71.493" y="26.5" font-family="Tahoma" font-size="12" fill="#1C1C1C" fill-opacity="0.913">buffered: 12498723</tspan>
      <tspan x="-71.493" y="40.5" font-family="Tahoma" font-size="12" fill="#1C1C1C" fill-opacity="0.913">slab: 12940097</tspan>
    </text>
    <path d="M384.946,622.858 L553.5,622.858 L553.5,757.657 L384.946,757.657 L384.946,622.858 z" fill-opacity="0" stroke="#000000" stroke-width="1"/>
    <text transform="matrix(1, 0, 0, 1, 438.232, 1114)">
      <tspan x="-56.236" y="-5" font-family="ShreeDev0714-BoldItalic" font-size="18" fill="#1C1C1C" fill-opacity="0.913">Emit this tuple</tspan>
      <tspan x="-60.328" y="16" font-family="ShreeDev0714-BoldItalic" font-size="12" fill="#1C1C1C" fill-opacity="0.913">(and delete the group)</tspan>
    </text>
    <g>
      <path d="M171.408,310.855 L247.85,310.855 C250.359,310.855 252.393,314.329 252.393,318.614 L252.393,331.915 C252.393,336.2 250.359,339.674 247.85,339.674 L171.408,339.674 C168.899,339.674 166.866,336.2 166.866,331.915 L166.866,318.614 C166.866,314.329 168.899,310.855 171.408,310.855 z" fill="#CCFCB8" fill-opacity="0.5"/>
      <path d="M171.408,310.855 L247.85,310.855 C250.359,310.855 252.393,314.329 252.393,318.614 L252.393,331.915 C252.393,336.2 250.359,339.674 247.85,339.674 L171.408,339.674 C168.899,339.674 166.866,336.2 166.866,331.915 L166.866,318.614 C166.866,314.329 168.899,310.855 171.408,310.855 z" fill-opacity="0" stroke="#CEBCFF" stroke-width="2" stroke-opacity="0.5" stroke-dasharray="6,4"/>
    </g>
    <text transform="matrix(1, 0, 0, 1, 168.446, 312.674)">
      <tspan x="-27.617" y="-9.5" font-family="ShreeDev0714-BoldItalic" font-size="18" fill="#1C1C1C" fill-opacity="0.913">selected tuple </tspan>
      <tspan x="-0.181" y="17.5" font-family="ShreeDev0714-BoldItalic" font-size="18" fill="#1C1C1C" fill-opacity="0.913">"selected":</tspan>
    </text>
    <text transform="matrix(1, 0, 0, 1, 168.446, 83.843)">
      <tspan x="-37.903" y="4" font-family="ShreeDev0714-BoldItalic" font-size="18" fill="#1C1C1C" fill-opacity="0.913">input tuple "in":</tspan>
    </text>
    <text transform="matrix(1, 0, 0, 1, 348, 1032.476)">
      <tspan x="-135.422" y="-4" font-family="Tahoma-Bold" font-size="12" fill="#000000" fill-opacity="0.915">COMMIT WHEN in.time &gt; previous.time + 30</tspan>
    </text>
    <g>
      <path d="M486.864,310.855 L577.135,310.855 C580.097,310.855 582.499,314.329 582.499,318.614 L582.499,331.915 C582.499,336.2 580.097,339.674 577.135,339.674 L486.864,339.674 C483.902,339.674 481.5,336.2 481.5,331.915 L481.5,318.614 C481.5,314.329 483.902,310.855 486.864,310.855 z" fill="#FFD8B8" fill-opacity="0.5"/>
      <path d="M486.864,310.855 L577.135,310.855 C580.097,310.855 582.499,314.329 582.499,318.614 L582.499,331.915 C582.499,336.2 580.097,339.674 577.135,339.674 L486.864,339.674 C483.902,339.674 481.5,336.2 481.5,331.915 L481.5,318.614 C481.5,314.329 483.902,310.855 486.864,310.855 z" fill-opacity="0" stroke="#CEBCFF" stroke-width="2" stroke-opacity="0.5" stroke-dasharray="6,4"/>
    </g>
    <g>
      <path d="M297.184,604.517 L354.365,604.517 C357.497,604.517 360.036,608.995 360.036,614.517 L360.036,615.662 C360.036,621.185 357.497,625.662 354.365,625.662 L297.184,625.662 C294.051,625.662 291.512,621.185 291.512,615.662 L291.512,614.517 C291.512,608.995 294.051,604.517 297.184,604.517 z" fill="#B6FEFF" fill-opacity="0.5"/>
      <path d="M297.184,604.517 L354.365,604.517 C357.497,604.517 360.036,608.995 360.036,614.517 L360.036,615.662 C360.036,621.185 357.497,625.662 354.365,625.662 L297.184,625.662 C294.051,625.662 291.512,621.185 291.512,615.662 L291.512,614.517 C291.512,608.995 294.051,604.517 297.184,604.517 z" fill-opacity="0" stroke="#CEBCFF" stroke-width="2" stroke-opacity="0.5"/>
    </g>
    <g>
      <path d="M297.184,585.717 L354.365,585.717 C357.497,585.717 360.036,590.194 360.036,595.717 L360.036,596.861 C360.036,602.384 357.497,606.861 354.365,606.861 L297.184,606.861 C294.051,606.861 291.512,602.384 291.512,596.861 L291.512,595.717 C291.512,590.194 294.051,585.717 297.184,585.717 z" fill="#B8C5FF" fill-opacity="0.5"/>
      <path d="M297.184,585.717 L354.365,585.717 C357.497,585.717 360.036,590.194 360.036,595.717 L360.036,596.861 C360.036,602.384 357.497,606.861 354.365,606.861 L297.184,606.861 C294.051,606.861 291.512,602.384 291.512,596.861 L291.512,595.717 C291.512,590.194 294.051,585.717 297.184,585.717 z" fill-opacity="0" stroke="#CEBCFF" stroke-width="2" stroke-opacity="0.5"/>
    </g>
    <g>
      <path d="M299.125,622.858 L375.875,622.858 C380.08,622.858 383.488,627.336 383.488,632.858 L383.488,634.003 C383.488,639.526 380.08,644.003 375.875,644.003 L299.125,644.003 C294.92,644.003 291.512,639.526 291.512,634.003 L291.512,632.858 C291.512,627.336 294.92,622.858 299.125,622.858 z" fill="#FFBDF5" fill-opacity="0.5"/>
      <path d="M299.125,622.858 L375.875,622.858 C380.08,622.858 383.488,627.336 383.488,632.858 L383.488,634.003 C383.488,639.526 380.08,644.003 375.875,644.003 L299.125,644.003 C294.92,644.003 291.512,639.526 291.512,634.003 L291.512,632.858 C291.512,627.336 294.92,622.858 299.125,622.858 z" fill-opacity="0" stroke="#CEBCFF" stroke-width="2" stroke-opacity="0.5"/>
    </g>
    <text transform="matrix(1, 0, 0, 1, 432.678, 612.762)">
      <tspan x="-133.331" y="-46.789" font-family="Tahoma" font-size="12" fill="#000000">group for that key:</tspan>
      <tspan x="-133.331" y="-29.989" font-family="Tahoma" font-size="12" fill="#000000">group.#count: 17</tspan>
      <tspan x="-133.331" y="-12.989" font-family="Tahoma" font-size="12" fill="#000000">group.first: </tspan>
      <tspan x="-70.817" y="-12.989" font-family="Times-Italic" font-size="12" fill="#000000">first input tuple aggregated into this group</tspan>
      <tspan x="-133.331" y="5.011" font-family="Tahoma" font-size="12" fill="#000000">group.last: </tspan>
      <tspan x="-72.663" y="5.011" font-family="Times-Italic" font-size="12" fill="#000000">last input tuple aggregated into this group</tspan>
      <tspan x="-133.331" y="23.011" font-family="Tahoma" font-size="12" fill="#000000">group.previous:  </tspan>
      <tspan x="-42.827" y="23.011" font-family="Times-Italic" font-size="12" fill="#000000">previous value of the output tuple</tspan>
      <tspan x="-133.331" y="40.811" font-family="Tahoma" font-size="12" fill="#000000">etc...</tspan>
    </text>
  </g>
</svg>
